<mxfile host="app.diagrams.net" modified="2020-06-22T09:44:10.666Z" agent="5.0 (Windows)" etag="xgQ_EnQI1gZd5N6s0EiS" version="13.3.0" type="github">
  <diagram id="mTZRcphGHKb-bVu44xnM" name="Page-1">
    <mxGraphModel dx="2249" dy="763" grid="1" gridSize="10" guides="1" tooltips="1" connect="1" arrows="1" fold="1" page="1" pageScale="1" pageWidth="827" pageHeight="1169" math="0" shadow="0">
      <root>
        <mxCell id="0" />
        <mxCell id="1" parent="0" />
        <mxCell id="M4AGfBQzPxhNNaTuGBdd-41" value="" style="rounded=1;whiteSpace=wrap;html=1;fillColor=none;dashed=1;" parent="1" vertex="1">
          <mxGeometry x="450" y="70" width="410" height="970" as="geometry" />
        </mxCell>
        <mxCell id="ty5_YHNvFAX9lvQ7WHug-4" value="" style="rounded=0;whiteSpace=wrap;html=1;fillColor=none;shadow=0;glass=1;comic=0;" vertex="1" parent="1">
          <mxGeometry x="70" y="390" width="620" height="270" as="geometry" />
        </mxCell>
        <mxCell id="M4AGfBQzPxhNNaTuGBdd-40" value="" style="rounded=1;whiteSpace=wrap;html=1;fillColor=none;dashed=1;" parent="1" vertex="1">
          <mxGeometry x="-20" y="70" width="330" height="970" as="geometry" />
        </mxCell>
        <mxCell id="M4AGfBQzPxhNNaTuGBdd-99" value="" style="rounded=1;whiteSpace=wrap;html=1;fillColor=none;" parent="1" vertex="1">
          <mxGeometry x="465" y="810" width="210" height="90" as="geometry" />
        </mxCell>
        <mxCell id="M4AGfBQzPxhNNaTuGBdd-90" value="" style="rounded=1;whiteSpace=wrap;html=1;fillColor=none;" parent="1" vertex="1">
          <mxGeometry x="80" y="710" width="210" height="90" as="geometry" />
        </mxCell>
        <mxCell id="M4AGfBQzPxhNNaTuGBdd-105" value="" style="rounded=1;whiteSpace=wrap;html=1;fillColor=none;" parent="1" vertex="1">
          <mxGeometry x="85" y="910" width="210" height="120" as="geometry" />
        </mxCell>
        <mxCell id="M4AGfBQzPxhNNaTuGBdd-16" value="" style="rounded=1;whiteSpace=wrap;html=1;fillColor=none;" parent="1" vertex="1">
          <mxGeometry x="80" y="90" width="600" height="70" as="geometry" />
        </mxCell>
        <mxCell id="M4AGfBQzPxhNNaTuGBdd-27" value="" style="rounded=1;whiteSpace=wrap;html=1;fillColor=none;" parent="1" vertex="1">
          <mxGeometry x="80" y="260" width="600" height="70" as="geometry" />
        </mxCell>
        <mxCell id="M4AGfBQzPxhNNaTuGBdd-14" value="" style="rounded=1;whiteSpace=wrap;html=1;fillColor=none;" parent="1" vertex="1">
          <mxGeometry x="80" y="170" width="600" height="80" as="geometry" />
        </mxCell>
        <mxCell id="M4AGfBQzPxhNNaTuGBdd-1" value="" style="verticalLabelPosition=bottom;html=1;verticalAlign=top;align=center;strokeColor=none;fillColor=#00BEF2;shape=mxgraph.azure.virtual_machine;" parent="1" vertex="1">
          <mxGeometry x="205" y="100" width="50" height="40" as="geometry" />
        </mxCell>
        <mxCell id="M4AGfBQzPxhNNaTuGBdd-2" value="" style="verticalLabelPosition=bottom;html=1;verticalAlign=top;align=center;strokeColor=#6c8ebf;fillColor=#dae8fc;shape=mxgraph.azure.virtual_machine;" parent="1" vertex="1">
          <mxGeometry x="495" y="100" width="50" height="40" as="geometry" />
        </mxCell>
        <mxCell id="M4AGfBQzPxhNNaTuGBdd-4" value="" style="verticalLabelPosition=bottom;html=1;verticalAlign=top;align=center;strokeColor=none;fillColor=#00BEF2;shape=mxgraph.azure.virtual_machine;" parent="1" vertex="1">
          <mxGeometry x="205" y="180" width="50" height="40" as="geometry" />
        </mxCell>
        <mxCell id="M4AGfBQzPxhNNaTuGBdd-6" value="" style="verticalLabelPosition=bottom;html=1;verticalAlign=top;align=center;strokeColor=none;fillColor=#00BEF2;shape=mxgraph.azure.virtual_machine;" parent="1" vertex="1">
          <mxGeometry x="205" y="180" width="50" height="40" as="geometry" />
        </mxCell>
        <mxCell id="M4AGfBQzPxhNNaTuGBdd-7" value="" style="verticalLabelPosition=bottom;html=1;verticalAlign=top;align=center;strokeColor=none;fillColor=#00BEF2;shape=mxgraph.azure.virtual_machine;" parent="1" vertex="1">
          <mxGeometry x="495" y="180" width="50" height="40" as="geometry" />
        </mxCell>
        <mxCell id="M4AGfBQzPxhNNaTuGBdd-8" value="" style="verticalLabelPosition=bottom;html=1;verticalAlign=top;align=center;strokeColor=none;fillColor=#00BEF2;shape=mxgraph.azure.virtual_machine;" parent="1" vertex="1">
          <mxGeometry x="600" y="180" width="50" height="40" as="geometry" />
        </mxCell>
        <mxCell id="M4AGfBQzPxhNNaTuGBdd-9" value="" style="verticalLabelPosition=bottom;html=1;verticalAlign=top;align=center;strokeColor=none;fillColor=#00BEF2;shape=mxgraph.azure.virtual_machine;" parent="1" vertex="1">
          <mxGeometry x="105" y="180" width="50" height="40" as="geometry" />
        </mxCell>
        <mxCell id="M4AGfBQzPxhNNaTuGBdd-17" value="ASCS" style="text;html=1;strokeColor=none;fillColor=none;align=center;verticalAlign=middle;whiteSpace=wrap;rounded=0;" parent="1" vertex="1">
          <mxGeometry x="210" y="140" width="40" height="20" as="geometry" />
        </mxCell>
        <mxCell id="M4AGfBQzPxhNNaTuGBdd-18" value="ASCS" style="text;html=1;strokeColor=none;fillColor=none;align=center;verticalAlign=middle;whiteSpace=wrap;rounded=0;" parent="1" vertex="1">
          <mxGeometry x="500" y="140" width="40" height="20" as="geometry" />
        </mxCell>
        <mxCell id="M4AGfBQzPxhNNaTuGBdd-19" value="&lt;div&gt;Dialog Instance&lt;/div&gt;" style="text;html=1;strokeColor=none;fillColor=none;align=center;verticalAlign=middle;whiteSpace=wrap;rounded=0;" parent="1" vertex="1">
          <mxGeometry x="85" y="220" width="90" height="20" as="geometry" />
        </mxCell>
        <mxCell id="M4AGfBQzPxhNNaTuGBdd-23" value="Database Prod" style="text;html=1;strokeColor=none;fillColor=none;align=center;verticalAlign=middle;whiteSpace=wrap;rounded=0;" parent="1" vertex="1">
          <mxGeometry x="185" y="310" width="90" height="20" as="geometry" />
        </mxCell>
        <mxCell id="M4AGfBQzPxhNNaTuGBdd-24" value="Database PR PRA" style="text;html=1;strokeColor=none;fillColor=none;align=center;verticalAlign=middle;whiteSpace=wrap;rounded=0;" parent="1" vertex="1">
          <mxGeometry x="465" y="310" width="110" height="20" as="geometry" />
        </mxCell>
        <mxCell id="M4AGfBQzPxhNNaTuGBdd-25" value="HSR" style="shape=flexArrow;endArrow=classic;startArrow=classic;html=1;entryX=0;entryY=0.5;entryDx=0;entryDy=0;entryPerimeter=0;exitX=1;exitY=0.5;exitDx=0;exitDy=0;exitPerimeter=0;fillColor=none;" parent="1" edge="1">
          <mxGeometry width="50" height="50" relative="1" as="geometry">
            <mxPoint x="255" y="290.0000000000001" as="sourcePoint" />
            <mxPoint x="495" y="290.0000000000001" as="targetPoint" />
          </mxGeometry>
        </mxCell>
        <mxCell id="M4AGfBQzPxhNNaTuGBdd-29" value="&lt;div&gt;Dialog Instance&lt;/div&gt;" style="text;html=1;strokeColor=none;fillColor=none;align=center;verticalAlign=middle;whiteSpace=wrap;rounded=0;" parent="1" vertex="1">
          <mxGeometry x="185" y="220" width="90" height="20" as="geometry" />
        </mxCell>
        <mxCell id="M4AGfBQzPxhNNaTuGBdd-36" value="&lt;div&gt;Dialog Instance&lt;/div&gt;" style="text;html=1;strokeColor=none;fillColor=none;align=center;verticalAlign=middle;whiteSpace=wrap;rounded=0;" parent="1" vertex="1">
          <mxGeometry x="475" y="220" width="90" height="20" as="geometry" />
        </mxCell>
        <mxCell id="M4AGfBQzPxhNNaTuGBdd-37" value="&lt;div&gt;Dialog Instance&lt;/div&gt;" style="text;html=1;strokeColor=none;fillColor=none;align=center;verticalAlign=middle;whiteSpace=wrap;rounded=0;" parent="1" vertex="1">
          <mxGeometry x="580" y="220" width="90" height="20" as="geometry" />
        </mxCell>
        <mxCell id="M4AGfBQzPxhNNaTuGBdd-46" value="" style="shape=flexArrow;endArrow=classic;startArrow=classic;html=1;fillColor=none;entryX=0;entryY=0.5;entryDx=0;entryDy=0;entryPerimeter=0;exitX=1;exitY=0.5;exitDx=0;exitDy=0;exitPerimeter=0;" parent="1" source="M4AGfBQzPxhNNaTuGBdd-1" target="M4AGfBQzPxhNNaTuGBdd-2" edge="1">
          <mxGeometry width="50" height="50" relative="1" as="geometry">
            <mxPoint x="410" y="160" as="sourcePoint" />
            <mxPoint x="460" y="110" as="targetPoint" />
          </mxGeometry>
        </mxCell>
        <mxCell id="M4AGfBQzPxhNNaTuGBdd-126" value="ESR" style="edgeLabel;html=1;align=center;verticalAlign=middle;resizable=0;points=[];" parent="M4AGfBQzPxhNNaTuGBdd-46" vertex="1" connectable="0">
          <mxGeometry x="-0.1966" y="-3" relative="1" as="geometry">
            <mxPoint x="18.53" y="-3" as="offset" />
          </mxGeometry>
        </mxCell>
        <mxCell id="M4AGfBQzPxhNNaTuGBdd-48" value="" style="rounded=1;whiteSpace=wrap;html=1;fillColor=none;" parent="1" vertex="1">
          <mxGeometry x="80" y="400" width="600" height="80" as="geometry" />
        </mxCell>
        <mxCell id="M4AGfBQzPxhNNaTuGBdd-49" value="" style="rounded=1;whiteSpace=wrap;html=1;fillColor=none;" parent="1" vertex="1">
          <mxGeometry x="80" y="580" width="600" height="70" as="geometry" />
        </mxCell>
        <mxCell id="M4AGfBQzPxhNNaTuGBdd-50" value="" style="rounded=1;whiteSpace=wrap;html=1;fillColor=none;" parent="1" vertex="1">
          <mxGeometry x="80" y="490" width="600" height="80" as="geometry" />
        </mxCell>
        <mxCell id="M4AGfBQzPxhNNaTuGBdd-51" value="" style="verticalLabelPosition=bottom;html=1;verticalAlign=top;align=center;strokeColor=#6c8ebf;fillColor=#dae8fc;shape=mxgraph.azure.virtual_machine;" parent="1" vertex="1">
          <mxGeometry x="205" y="410" width="50" height="40" as="geometry" />
        </mxCell>
        <mxCell id="M4AGfBQzPxhNNaTuGBdd-52" value="" style="verticalLabelPosition=bottom;html=1;verticalAlign=top;align=center;strokeColor=none;fillColor=#00BEF2;shape=mxgraph.azure.virtual_machine;" parent="1" vertex="1">
          <mxGeometry x="495" y="410" width="50" height="40" as="geometry" />
        </mxCell>
        <mxCell id="M4AGfBQzPxhNNaTuGBdd-53" value="" style="verticalLabelPosition=bottom;html=1;verticalAlign=top;align=center;strokeColor=none;fillColor=#00BEF2;shape=mxgraph.azure.virtual_machine;" parent="1" vertex="1">
          <mxGeometry x="205" y="500" width="50" height="40" as="geometry" />
        </mxCell>
        <mxCell id="M4AGfBQzPxhNNaTuGBdd-54" value="" style="verticalLabelPosition=bottom;html=1;verticalAlign=top;align=center;strokeColor=none;fillColor=#00BEF2;shape=mxgraph.azure.virtual_machine;" parent="1" vertex="1">
          <mxGeometry x="205" y="500" width="50" height="40" as="geometry" />
        </mxCell>
        <mxCell id="M4AGfBQzPxhNNaTuGBdd-55" value="" style="verticalLabelPosition=bottom;html=1;verticalAlign=top;align=center;strokeColor=none;fillColor=#00BEF2;shape=mxgraph.azure.virtual_machine;" parent="1" vertex="1">
          <mxGeometry x="495" y="500" width="50" height="40" as="geometry" />
        </mxCell>
        <mxCell id="M4AGfBQzPxhNNaTuGBdd-60" value="ASCS" style="text;html=1;strokeColor=none;fillColor=none;align=center;verticalAlign=middle;whiteSpace=wrap;rounded=0;" parent="1" vertex="1">
          <mxGeometry x="210" y="450" width="40" height="20" as="geometry" />
        </mxCell>
        <mxCell id="M4AGfBQzPxhNNaTuGBdd-61" value="ASCS" style="text;html=1;strokeColor=none;fillColor=none;align=center;verticalAlign=middle;whiteSpace=wrap;rounded=0;" parent="1" vertex="1">
          <mxGeometry x="500" y="450" width="40" height="20" as="geometry" />
        </mxCell>
        <mxCell id="M4AGfBQzPxhNNaTuGBdd-63" value="Database PProd PRA" style="text;html=1;strokeColor=none;fillColor=none;align=center;verticalAlign=middle;whiteSpace=wrap;rounded=0;" parent="1" vertex="1">
          <mxGeometry x="162.5" y="630" width="135" height="20" as="geometry" />
        </mxCell>
        <mxCell id="M4AGfBQzPxhNNaTuGBdd-64" value="Database PProd" style="text;html=1;strokeColor=none;fillColor=none;align=center;verticalAlign=middle;whiteSpace=wrap;rounded=0;" parent="1" vertex="1">
          <mxGeometry x="465" y="630" width="110" height="20" as="geometry" />
        </mxCell>
        <mxCell id="M4AGfBQzPxhNNaTuGBdd-65" value="HSR" style="shape=flexArrow;endArrow=classic;startArrow=classic;html=1;entryX=0;entryY=0.5;entryDx=0;entryDy=0;entryPerimeter=0;exitX=1;exitY=0.5;exitDx=0;exitDy=0;exitPerimeter=0;fillColor=none;" parent="1" edge="1">
          <mxGeometry width="50" height="50" relative="1" as="geometry">
            <mxPoint x="255" y="610" as="sourcePoint" />
            <mxPoint x="495" y="610" as="targetPoint" />
          </mxGeometry>
        </mxCell>
        <mxCell id="M4AGfBQzPxhNNaTuGBdd-66" value="&lt;div&gt;Dialog Instance&lt;/div&gt;" style="text;html=1;strokeColor=none;fillColor=none;align=center;verticalAlign=middle;whiteSpace=wrap;rounded=0;" parent="1" vertex="1">
          <mxGeometry x="185" y="540" width="90" height="20" as="geometry" />
        </mxCell>
        <mxCell id="M4AGfBQzPxhNNaTuGBdd-67" value="&lt;div&gt;Dialog Instance&lt;/div&gt;" style="text;html=1;strokeColor=none;fillColor=none;align=center;verticalAlign=middle;whiteSpace=wrap;rounded=0;" parent="1" vertex="1">
          <mxGeometry x="475" y="540" width="90" height="20" as="geometry" />
        </mxCell>
        <mxCell id="M4AGfBQzPxhNNaTuGBdd-69" value="" style="shape=flexArrow;endArrow=classic;startArrow=classic;html=1;fillColor=none;entryX=0;entryY=0.5;entryDx=0;entryDy=0;entryPerimeter=0;exitX=1;exitY=0.5;exitDx=0;exitDy=0;exitPerimeter=0;" parent="1" source="M4AGfBQzPxhNNaTuGBdd-51" target="M4AGfBQzPxhNNaTuGBdd-52" edge="1">
          <mxGeometry width="50" height="50" relative="1" as="geometry">
            <mxPoint x="410" y="470" as="sourcePoint" />
            <mxPoint x="460" y="420" as="targetPoint" />
          </mxGeometry>
        </mxCell>
        <mxCell id="M4AGfBQzPxhNNaTuGBdd-71" value="" style="verticalLabelPosition=bottom;html=1;verticalAlign=top;align=center;strokeColor=#6c8ebf;fillColor=#dae8fc;shape=mxgraph.azure.database;" parent="1" vertex="1">
          <mxGeometry x="211.25" y="585" width="37.5" height="50" as="geometry" />
        </mxCell>
        <mxCell id="M4AGfBQzPxhNNaTuGBdd-72" value="" style="verticalLabelPosition=bottom;html=1;verticalAlign=top;align=center;strokeColor=none;fillColor=#00BEF2;shape=mxgraph.azure.database;dashed=1;" parent="1" vertex="1">
          <mxGeometry x="501.25" y="585" width="37.5" height="50" as="geometry" />
        </mxCell>
        <mxCell id="M4AGfBQzPxhNNaTuGBdd-77" value="" style="verticalLabelPosition=bottom;html=1;verticalAlign=top;align=center;strokeColor=none;fillColor=#00BEF2;shape=mxgraph.azure.database;dashed=1;" parent="1" vertex="1">
          <mxGeometry x="215" y="270" width="30" height="40" as="geometry" />
        </mxCell>
        <mxCell id="M4AGfBQzPxhNNaTuGBdd-85" value="" style="verticalLabelPosition=bottom;html=1;verticalAlign=top;align=center;strokeColor=none;fillColor=#00BEF2;shape=mxgraph.azure.virtual_machine;" parent="1" vertex="1">
          <mxGeometry x="105" y="720" width="50" height="40" as="geometry" />
        </mxCell>
        <mxCell id="M4AGfBQzPxhNNaTuGBdd-86" value="" style="verticalLabelPosition=bottom;html=1;verticalAlign=top;align=center;strokeColor=none;fillColor=#00BEF2;shape=mxgraph.azure.database;dashed=1;" parent="1" vertex="1">
          <mxGeometry x="211.25" y="720" width="37.5" height="50" as="geometry" />
        </mxCell>
        <mxCell id="M4AGfBQzPxhNNaTuGBdd-89" value="ABAP" style="text;html=1;strokeColor=none;fillColor=none;align=center;verticalAlign=middle;whiteSpace=wrap;rounded=0;" parent="1" vertex="1">
          <mxGeometry x="85" y="760" width="90" height="20" as="geometry" />
        </mxCell>
        <mxCell id="M4AGfBQzPxhNNaTuGBdd-92" value="Simulation" style="text;html=1;strokeColor=none;fillColor=none;align=center;verticalAlign=middle;whiteSpace=wrap;rounded=0;" parent="1" vertex="1">
          <mxGeometry x="162.5" y="780" width="40" height="20" as="geometry" />
        </mxCell>
        <mxCell id="M4AGfBQzPxhNNaTuGBdd-95" value="" style="verticalLabelPosition=bottom;html=1;verticalAlign=top;align=center;strokeColor=none;fillColor=#00BEF2;shape=mxgraph.azure.virtual_machine;" parent="1" vertex="1">
          <mxGeometry x="490" y="820" width="50" height="40" as="geometry" />
        </mxCell>
        <mxCell id="M4AGfBQzPxhNNaTuGBdd-96" value="" style="verticalLabelPosition=bottom;html=1;verticalAlign=top;align=center;strokeColor=none;fillColor=#00BEF2;shape=mxgraph.azure.database;dashed=1;" parent="1" vertex="1">
          <mxGeometry x="596.25" y="820" width="37.5" height="50" as="geometry" />
        </mxCell>
        <mxCell id="M4AGfBQzPxhNNaTuGBdd-98" value="ABAP" style="text;html=1;strokeColor=none;fillColor=none;align=center;verticalAlign=middle;whiteSpace=wrap;rounded=0;" parent="1" vertex="1">
          <mxGeometry x="470" y="860" width="90" height="20" as="geometry" />
        </mxCell>
        <mxCell id="M4AGfBQzPxhNNaTuGBdd-100" value="Acceptance" style="text;html=1;strokeColor=none;fillColor=none;align=center;verticalAlign=middle;whiteSpace=wrap;rounded=0;" parent="1" vertex="1">
          <mxGeometry x="547.5" y="880" width="40" height="20" as="geometry" />
        </mxCell>
        <mxCell id="M4AGfBQzPxhNNaTuGBdd-101" value="" style="verticalLabelPosition=bottom;html=1;verticalAlign=top;align=center;strokeColor=none;fillColor=#00BEF2;shape=mxgraph.azure.virtual_machine;" parent="1" vertex="1">
          <mxGeometry x="100" y="920" width="50" height="40" as="geometry" />
        </mxCell>
        <mxCell id="M4AGfBQzPxhNNaTuGBdd-102" value="" style="verticalLabelPosition=bottom;html=1;verticalAlign=top;align=center;strokeColor=none;fillColor=#00BEF2;shape=mxgraph.azure.database;dashed=1;" parent="1" vertex="1">
          <mxGeometry x="240" y="920" width="37.5" height="50" as="geometry" />
        </mxCell>
        <mxCell id="M4AGfBQzPxhNNaTuGBdd-104" value="&lt;div&gt;ABAP + GRC&lt;/div&gt;" style="text;html=1;strokeColor=none;fillColor=none;align=center;verticalAlign=middle;whiteSpace=wrap;rounded=0;" parent="1" vertex="1">
          <mxGeometry x="85" y="970" width="90" height="20" as="geometry" />
        </mxCell>
        <mxCell id="M4AGfBQzPxhNNaTuGBdd-106" value="&lt;div&gt;Développement&lt;/div&gt;" style="text;html=1;strokeColor=none;fillColor=none;align=center;verticalAlign=middle;whiteSpace=wrap;rounded=0;" parent="1" vertex="1">
          <mxGeometry x="170" y="1010" width="40" height="20" as="geometry" />
        </mxCell>
        <mxCell id="M4AGfBQzPxhNNaTuGBdd-110" value="" style="aspect=fixed;perimeter=ellipsePerimeter;html=1;align=center;shadow=0;dashed=0;spacingTop=3;image;image=img/lib/active_directory/key.svg;fillColor=none;" parent="1" vertex="1">
          <mxGeometry x="264" y="920" width="27.91" height="20.66" as="geometry" />
        </mxCell>
        <mxCell id="M4AGfBQzPxhNNaTuGBdd-111" value="" style="verticalLabelPosition=bottom;html=1;verticalAlign=top;align=center;strokeColor=#6c8ebf;fillColor=#dae8fc;shape=mxgraph.azure.database;" parent="1" vertex="1">
          <mxGeometry x="505" y="270" width="30" height="40" as="geometry" />
        </mxCell>
        <mxCell id="M4AGfBQzPxhNNaTuGBdd-113" value="" style="aspect=fixed;perimeter=ellipsePerimeter;html=1;align=center;shadow=0;dashed=0;spacingTop=3;image;image=img/lib/active_directory/key.svg;fillColor=none;" parent="1" vertex="1">
          <mxGeometry x="231" y="270" width="27.91" height="20.66" as="geometry" />
        </mxCell>
        <mxCell id="M4AGfBQzPxhNNaTuGBdd-114" value="" style="pointerEvents=1;shadow=0;dashed=0;html=1;strokeColor=none;fillColor=#DF8C42;labelPosition=center;verticalLabelPosition=bottom;verticalAlign=top;align=center;outlineConnect=0;shape=mxgraph.veeam2.sap_hana;" parent="1" vertex="1">
          <mxGeometry x="234.95000000000005" y="296" width="20" height="19" as="geometry" />
        </mxCell>
        <mxCell id="M4AGfBQzPxhNNaTuGBdd-115" value="" style="pointerEvents=1;shadow=0;dashed=0;html=1;strokeColor=none;fillColor=#DF8C42;labelPosition=center;verticalLabelPosition=bottom;verticalAlign=top;align=center;outlineConnect=0;shape=mxgraph.veeam2.sap_hana;" parent="1" vertex="1">
          <mxGeometry x="525" y="296" width="20" height="19" as="geometry" />
        </mxCell>
        <mxCell id="M4AGfBQzPxhNNaTuGBdd-116" value="" style="pointerEvents=1;shadow=0;dashed=0;html=1;strokeColor=none;fillColor=#DF8C42;labelPosition=center;verticalLabelPosition=bottom;verticalAlign=top;align=center;outlineConnect=0;shape=mxgraph.veeam2.sap_hana;" parent="1" vertex="1">
          <mxGeometry x="238.91000000000005" y="616" width="20" height="19" as="geometry" />
        </mxCell>
        <mxCell id="M4AGfBQzPxhNNaTuGBdd-117" value="" style="pointerEvents=1;shadow=0;dashed=0;html=1;strokeColor=none;fillColor=#DF8C42;labelPosition=center;verticalLabelPosition=bottom;verticalAlign=top;align=center;outlineConnect=0;shape=mxgraph.veeam2.sap_hana;" parent="1" vertex="1">
          <mxGeometry x="527.5" y="616" width="20" height="19" as="geometry" />
        </mxCell>
        <mxCell id="M4AGfBQzPxhNNaTuGBdd-118" value="" style="pointerEvents=1;shadow=0;dashed=0;html=1;strokeColor=none;fillColor=#DF8C42;labelPosition=center;verticalLabelPosition=bottom;verticalAlign=top;align=center;outlineConnect=0;shape=mxgraph.veeam2.sap_hana;" parent="1" vertex="1">
          <mxGeometry x="238.91000000000005" y="751" width="20" height="19" as="geometry" />
        </mxCell>
        <mxCell id="M4AGfBQzPxhNNaTuGBdd-119" value="" style="pointerEvents=1;shadow=0;dashed=0;html=1;strokeColor=none;fillColor=#DF8C42;labelPosition=center;verticalLabelPosition=bottom;verticalAlign=top;align=center;outlineConnect=0;shape=mxgraph.veeam2.sap_hana;" parent="1" vertex="1">
          <mxGeometry x="620" y="851" width="20" height="19" as="geometry" />
        </mxCell>
        <mxCell id="M4AGfBQzPxhNNaTuGBdd-120" value="" style="pointerEvents=1;shadow=0;dashed=0;html=1;strokeColor=none;fillColor=#DF8C42;labelPosition=center;verticalLabelPosition=bottom;verticalAlign=top;align=center;outlineConnect=0;shape=mxgraph.veeam2.sap_hana;" parent="1" vertex="1">
          <mxGeometry x="267.9600000000001" y="960" width="20" height="19" as="geometry" />
        </mxCell>
        <mxCell id="M4AGfBQzPxhNNaTuGBdd-121" value="" style="aspect=fixed;html=1;points=[];align=center;image;fontSize=12;image=img/lib/mscae/SAP_HANA_on_Azure.svg;fillColor=none;" parent="1" vertex="1">
          <mxGeometry x="870" y="924" width="140" height="70" as="geometry" />
        </mxCell>
        <mxCell id="M4AGfBQzPxhNNaTuGBdd-125" style="edgeStyle=orthogonalEdgeStyle;rounded=0;orthogonalLoop=1;jettySize=auto;html=1;exitX=1;exitY=0.5;exitDx=0;exitDy=0;exitPerimeter=0;fillColor=none;" parent="1" source="M4AGfBQzPxhNNaTuGBdd-122" target="M4AGfBQzPxhNNaTuGBdd-121" edge="1">
          <mxGeometry relative="1" as="geometry" />
        </mxCell>
        <mxCell id="M4AGfBQzPxhNNaTuGBdd-122" value="Saprouteur" style="verticalLabelPosition=bottom;html=1;verticalAlign=top;align=center;strokeColor=none;fillColor=#00BEF2;shape=mxgraph.azure.virtual_machine;" parent="1" vertex="1">
          <mxGeometry x="532.5" y="939" width="55" height="40" as="geometry" />
        </mxCell>
        <mxCell id="M4AGfBQzPxhNNaTuGBdd-127" value="ESR" style="edgeLabel;html=1;align=center;verticalAlign=middle;resizable=0;points=[];" parent="1" vertex="1" connectable="0">
          <mxGeometry x="380.00058823529434" y="125" as="geometry">
            <mxPoint x="-7" y="305" as="offset" />
          </mxGeometry>
        </mxCell>
        <mxCell id="ty5_YHNvFAX9lvQ7WHug-6" value="Pré-Production" style="rounded=0;whiteSpace=wrap;html=1;shadow=0;glass=1;comic=0;fillColor=#ffffff;strokeColor=none;" vertex="1" parent="1">
          <mxGeometry x="320" y="380" width="120" height="20" as="geometry" />
        </mxCell>
        <mxCell id="ty5_YHNvFAX9lvQ7WHug-7" value="" style="rounded=0;whiteSpace=wrap;html=1;fillColor=none;shadow=0;glass=1;comic=0;" vertex="1" parent="1">
          <mxGeometry x="70" y="80" width="620" height="260" as="geometry" />
        </mxCell>
        <mxCell id="ty5_YHNvFAX9lvQ7WHug-8" value="&lt;div&gt;Production&lt;/div&gt;" style="rounded=0;whiteSpace=wrap;html=1;shadow=0;glass=1;comic=0;fillColor=#ffffff;strokeColor=none;" vertex="1" parent="1">
          <mxGeometry x="320" y="70" width="120" height="20" as="geometry" />
        </mxCell>
      </root>
    </mxGraphModel>
  </diagram>
</mxfile>
